<?xml version="1.0" encoding="UTF-8" standalone="no"?>
<!DOCTYPE svg PUBLIC "-//W3C//DTD SVG 1.1//EN" "http://www.w3.org/Graphics/SVG/1.1/DTD/svg11.dtd">
<svg width="100%" height="100%" viewBox="0 0 321 306" version="1.1" xmlns="http://www.w3.org/2000/svg" xmlns:xlink="http://www.w3.org/1999/xlink" xml:space="preserve" style="fill-rule:evenodd;clip-rule:evenodd;stroke-linejoin:round;stroke-miterlimit:1.41421;">
    <g id="Artboard1" transform="matrix(1,0,0,1,-95.9,-103)">
        <rect x="95.9" y="103" width="320.3" height="306" style="fill:none;"/>
        <g>
            <path d="M304.2,409L207.7,409C192.8,409 180.5,396.8 180.5,381.8L180.5,324.3C180.5,309.4 192.7,297.1 207.7,297.1L210,297.1C219.5,312.6 236.5,322.9 256,322.9C275.5,322.9 292.5,312.6 302,297.1L304.3,297.1C319.2,297.1 331.5,309.3 331.5,324.3L331.5,381.8L331.4,381.8C331.4,396.7 319.2,409 304.2,409ZM302.6,269.7C302.6,295.5 281.7,316.4 255.9,316.4C230.1,316.4 209.2,295.5 209.2,269.7C209.2,243.9 230.1,223 255.9,223C281.7,223 302.6,243.9 302.6,269.7ZM207,291L123,291C108.1,291 95.9,278.8 95.9,263.8L95.9,206.3C95.9,191.4 108.1,179.1 123.1,179.1L125.4,179.1C134.9,194.6 151.9,204.9 171.4,204.9C190.9,204.9 207.9,194.6 217.4,179.1L219.7,179.1C234.6,179.1 246.9,191.3 246.9,206.3L246.9,217.3C221.7,221.6 202.5,243.5 202.5,269.7C202.5,277.3 204.1,284.499 207,291ZM388.9,291L305.1,291C308,284.5 309.6,277.3 309.6,269.7C309.6,243.4 290.4,221.6 265.2,217.3L265.2,206.3C265.2,191.4 277.4,179.1 292.4,179.1L294.7,179.1C304.2,194.6 321.2,204.9 340.7,204.9C360.2,204.9 377.2,194.6 386.7,179.1L389,179.1C403.9,179.1 416.2,191.3 416.2,206.3L416.2,263.8L416.1,263.8C416.1,278.7 403.9,291 388.9,291ZM340.7,103C366.5,103 387.4,123.9 387.4,149.7C387.4,175.5 366.5,196.4 340.7,196.4C314.9,196.4 294,175.5 294,149.7C294,123.9 314.9,103 340.7,103ZM171.3,103C197.1,103 218,123.9 218,149.7C218,175.5 197.1,196.4 171.3,196.4C145.5,196.4 124.6,175.5 124.6,149.7C124.6,123.9 145.5,103 171.3,103Z" style="fill:rgb(235,235,235);"/>
        </g>
    </g>
</svg>
