<?xml version="1.0" encoding="UTF-8" standalone="no"?>
<!DOCTYPE svg PUBLIC "-//W3C//DTD SVG 1.1//EN" "http://www.w3.org/Graphics/SVG/1.1/DTD/svg11.dtd">
<svg width="100%" height="100%" viewBox="0 0 64 64" version="1.1" xmlns="http://www.w3.org/2000/svg" xmlns:xlink="http://www.w3.org/1999/xlink" xml:space="preserve" style="fill-rule:evenodd;clip-rule:evenodd;stroke-linejoin:round;stroke-miterlimit:1.41421;">
    <path d="M43,2.235C40.347,2.235 37.865,2.945 35.715,4.165C35.699,4.172 35.686,4.175 35.667,4.185C33.677,5.134 32.446,3.864 32.446,3.864C32.446,3.864 32.44,3.877 32.44,3.878C29.673,1.476 26.071,0.016 22.117,0.016C13.37,0.016 6.292,7.111 6.292,15.841C6.292,18.596 7.017,21.175 8.257,23.433L8.247,23.433C8.247,23.433 15.201,36.773 15.692,38.133C16.617,40.712 17.414,43.035 17.693,44.138C18.5,47.263 20.594,61.723 27.013,63.938C27.335,63.992 27.889,64.04 28.123,63.82C28.549,63.27 28.629,62.202 28.197,60.622L28.197,60.603C28.197,60.603 27.34,57.484 27.512,55.68C27.828,51.194 29.377,44.503 29.57,43.68C29.956,41.966 32.985,42.65 32.985,42.65L32.988,42.647C34.147,43.211 35.092,43.609 35.7,43.85C35.7,43.85 37.287,44.461 37.899,46.969C37.946,47.213 37.991,47.468 38.033,47.753C38.062,47.974 38.104,48.175 38.119,48.419C38.138,48.582 38.155,48.758 38.173,48.936C38.179,48.969 38.179,49.013 38.185,49.043C38.425,51.64 38.447,55.608 37.953,61.685C37.953,61.688 37.953,61.688 37.953,61.691C37.835,63.222 38.673,63.712 38.673,63.712C38.985,63.834 39.389,63.956 39.748,63.943C40.446,63.92 41.171,63.777 41.646,63.293C41.899,63.038 42.167,62.751 42.452,62.4C46.293,57.691 47.894,56.155 48.578,45.822C49.062,38.757 51.713,32.302 53.632,28.147L55.408,24.867L55.408,24.864C56.863,22.582 57.71,19.871 57.71,16.958C57.708,8.831 51.113,2.235 43,2.235Z" style="fill:white;fill-rule:nonzero;"/>
</svg>
